<?xml version="1.0" standalone="no"?><!DOCTYPE svg PUBLIC "-//W3C//DTD SVG 1.1//EN" "http://www.w3.org/Graphics/SVG/1.1/DTD/svg11.dtd"><svg class="icon" width="200px" height="200.00px" viewBox="0 0 1024 1024" version="1.1" xmlns="http://www.w3.org/2000/svg"><path fill="#1296db" d="M515.069851 582.555411c-142.134106 0-257.765164-115.631058-257.765164-257.765164s115.631058-257.765164 257.765164-257.765165 257.765164 115.631058 257.765164 257.765165-115.631058 257.765164-257.765164 257.765164z m0-473.473368c-118.905566 0-215.708204 96.802638-215.708204 215.708204 0 118.905566 96.802638 215.708204 215.708204 215.708204s215.708204-96.802638 215.708204-215.708204c0-118.905566-96.802638-215.708204-215.708204-215.708204zM882.019386 949.504947c-11.563106 0-20.977316-9.41421-20.977315-20.977316 0-190.740082-155.129809-345.869891-345.869892-345.869891s-345.869891 155.129809-345.869891 345.869891c0 11.563106-9.41421 20.977316-20.977315 20.977316s-20.977316-9.41421-20.977316-20.977316c0-213.866294 174.060558-387.926851 387.926851-387.926852s387.926851 174.060558 387.926851 387.926852c-0.204657 11.563106-9.618867 20.977316-21.181973 20.977316z" /></svg>