<?xml version="1.0" standalone="no"?><!DOCTYPE svg PUBLIC "-//W3C//DTD SVG 1.1//EN" "http://www.w3.org/Graphics/SVG/1.1/DTD/svg11.dtd"><svg class="icon" width="200px" height="200.00px" viewBox="0 0 1024 1024" version="1.1" xmlns="http://www.w3.org/2000/svg"><path fill="#cdcdcd" d="M447.488 483.84H284.672c-30.72 0-55.808-25.088-55.808-55.808V265.216c0-30.72 25.088-55.808 55.808-55.808h162.816c30.72 0 55.808 25.088 55.808 55.808v162.816c0 30.72-25.088 55.808-55.808 55.808zM284.672 246.784c-10.24 0-18.432 8.192-18.432 18.432v162.816c0 10.24 8.192 18.432 18.432 18.432h162.816c10.24 0 18.432-8.192 18.432-18.432V265.216c0-10.24-8.192-18.432-18.432-18.432H284.672zM731.648 492.032c-8.192 0-16.384-1.536-24.064-5.12l-146.944-69.632c-27.648-13.312-39.936-46.592-26.624-74.24L604.16 195.584c13.312-27.648 46.592-39.936 74.24-26.624l146.944 69.632c13.312 6.144 23.552 17.408 28.672 31.744 5.12 13.824 4.096 29.184-2.048 43.008l-69.632 146.944c-9.216 19.968-29.696 31.744-50.688 31.744z m-7.68-38.912c9.216 4.608 20.48 0.512 25.088-8.704l69.632-146.944c2.048-4.608 2.56-9.728 0.512-14.336-1.536-4.608-5.12-8.704-9.728-10.752l-146.944-69.632c-9.216-4.608-20.48-0.512-25.088 8.704L568.32 358.912c-4.608 9.216-0.512 20.48 8.704 24.576l146.944 69.632zM447.488 792.064H284.672c-30.72 0-55.808-25.088-55.808-55.808V573.44c0-30.72 25.088-55.808 55.808-55.808h162.816c30.72 0 55.808 25.088 55.808 55.808v162.816c0 30.72-25.088 55.808-55.808 55.808z m-162.816-237.056c-10.24 0-18.432 8.192-18.432 18.432v162.816c0 10.24 8.192 18.432 18.432 18.432h162.816c10.24 0 18.432-8.192 18.432-18.432V573.44c0-10.24-8.192-18.432-18.432-18.432H284.672zM755.712 792.064h-162.816c-30.72 0-55.808-25.088-55.808-55.808V573.44c0-30.72 25.088-55.808 55.808-55.808h162.816c30.72 0 55.808 25.088 55.808 55.808v162.816c0.512 30.72-24.576 55.808-55.808 55.808z m-162.304-237.056c-10.24 0-18.432 8.192-18.432 18.432v162.816c0 10.24 8.192 18.432 18.432 18.432h162.816c10.24 0 18.432-8.192 18.432-18.432V573.44c0-10.24-8.192-18.432-18.432-18.432h-162.816z"  /></svg>