<?xml version="1.0" standalone="no"?><!DOCTYPE svg PUBLIC "-//W3C//DTD SVG 1.1//EN" "http://www.w3.org/Graphics/SVG/1.1/DTD/svg11.dtd"><svg class="icon" width="200px" height="200.00px" viewBox="0 0 1024 1024" version="1.1" xmlns="http://www.w3.org/2000/svg"><path fill="#cdcdcd" d="M186.953744 271.613849 150.81215 87.783584 94.851888 87.783584l0 14.138971 42.427551 0L264.572726 752.388514l622.157289 0 42.418096-480.774665L186.953744 271.613849zM872.580408 738.297996l-593.898255 0-88.958286-452.545176 720.750734 0L872.580408 738.297996zM349.388828 794.816065c-39.049986 0-70.706675 31.656689-70.706675 70.706675 0 39.049986 31.656689 70.706675 70.706675 70.706675s70.706675-31.656689 70.706675-70.706675C420.051777 826.490481 388.421088 794.85861 349.388828 794.816065zM349.388828 922.108171c-31.240698 0-56.566522-25.325824-56.566522-56.566522 0-31.240698 25.325824-56.566522 56.566522-56.566522s56.566522 25.325824 56.566522 56.566522c-0.048454 31.21588-25.350642 56.505069-56.566522 56.536977L349.388828 922.108171zM801.884369 794.816065c-39.049986 0-70.706675 31.656689-70.706675 70.706675s31.656689 70.706675 70.706675 70.706675c39.049986 0 70.706675-31.656689 70.706675-70.706675C872.547318 826.490481 840.916628 794.85861 801.884369 794.816065zM801.884369 922.108171c-31.240698 0-56.566522-25.325824-56.566522-56.566522 0-31.240698 25.325824-56.566522 56.566522-56.566522 31.240698 0 56.566522 25.325824 56.566522 56.566522-0.042545 31.218244-25.348278 56.510978-56.566522 56.536977L801.884369 922.108171z" /></svg>